<svg version="1.1" xmlns="http://www.w3.org/2000/svg" xmlns:xlink="http://www.w3.org/1999/xlink" xmlns:i="http://ns.adobe.com/AdobeIllustrator/10.0/" xmlns:sketch="http://www.bohemiancoding.com/sketch/ns" height="100%" width="100%" x="0px" y="0px" viewBox="150 100 320 240" xml:space="preserve" preserveAspectRatio="xMidYMid meet" class="">{{text2Gradient}}{{iconGradient}}<rect x="0px" y="0px" width="100%" height="100%" fill="none"></rect><g class="logo-container-box logoContainerBox" transform="scale(0.99) translate(3.2323232323232105,2.4242500536369676)"><g class="containerBody" transform="scale(1.12) translate(-34.2857295445034,-25.714285714285722)"><g class="sampleTexts_1" transform="scale(1) translate(0.00000762939453125,59.93034362792969)"><g class="logo--name svgLogoName_1 logoNameBox" transform="scale(1) translate(208.0461950302124,183.25999450683594)" fill="#4285f4"><path d="M-5.25 42.23L-5.08 42.23C-4.18 42.23-3.36 41.49-3.28 40.51C-3.28 39.85-3.20 39.28-3.20 38.70C-2.21 28.62 3.61 5.74 10.82-16.40C14.84-28.62 18.78-39.11 22.22-46.66C24.11-50.76 25.83-53.96 27.31-56.17C29.19-58.96 30.09-59.20 30.26-59.20C30.42-59.12 32.06-57.81 32.14-47.48C32.14-40.75 31.57-31.57 30.26-20.09C28.13-0.74 24.27 22.55 21.57 35.59C21.32 36.57 21.98 37.56 22.96 37.72C23.94 37.97 24.93 37.31 25.17 36.33C27.63 24.35 31.32 2.46 33.70-17.38C35.01-28.62 35.67-37.88 35.83-44.94C36.00-56.66 34.44-59.94 33.21-61.42C32.23-62.65 31.08-62.89 30.26-62.89C28.37-62.89 26.57-61.50 24.44-58.55C22.88-56.25 21.07-52.89 19.11-48.63C15.58-41 11.56-30.42 7.46-17.96C4.51-9.02 1.72 0.41-0.57 9.18C1.80-13.94 4.18-27.31 5.58-32.39L5.58-32.47C6.23-32.88 6.56-33.78 6.31-34.52C5.99-35.51 4.92-36.08 3.94-35.75C3.61-35.59 2.46-35.10 1.97-33.29C-0.49-23.94-4.18 1.72-6.81 38.38C-6.89 39.03-6.97 39.69-6.97 40.26C-6.97 41.33-6.23 42.15-5.25 42.23ZM48.31-27.88C49.13-27.88 49.79-28.45 50.04-29.27C50.45-30.83 50.77-31.90 50.77-31.90C51.02-32.88 50.45-33.87 49.54-34.11C48.56-34.36 47.58-33.87 47.33-32.88C47.33-32.88 47.00-31.82 46.59-30.09C46.35-29.19 46.92-28.21 47.90-27.96C47.99-27.88 48.15-27.88 48.31-27.88ZM44.46 3.03C47.25 3.03 50.69 1.07 55.04-3.12C58.56-6.56 61.60-10.33 62.66-11.81C63.32-12.63 63.16-13.78 62.34-14.35C61.60-14.92 60.45-14.76 59.88-14.02C55.04-7.71 48.48-0.98 44.79-0.49C44.62-1.23 44.38-3.36 45.61-9.51C46.43-13.69 47.58-17.55 47.58-17.55C47.82-18.53 47.25-19.52 46.35-19.76C45.36-20.01 44.38-19.52 44.13-18.53C44.05-18.37 42.98-14.43 42.08-10.09C40.44-1.72 41.18 0.74 42.08 1.89C42.66 2.62 43.48 3.03 44.46 3.03ZM64.24 1.48C68.50 1.48 72.77-0.16 77.11-3.53C81.29-6.81 84-10.50 84.98-11.97C85.56-12.79 85.39-13.94 84.57-14.43C83.75-15.01 82.61-14.76 82.03-13.94C81.21-12.63 78.67-9.27 74.90-6.31C71.29-3.53 67.68-2.05 64.24-2.05C62.35-2.05 61.86-2.95 61.70-3.77C61.37-5.17 61.78-7.46 62.76-9.68C63.83-11.81 65.22-13.61 66.53-14.27C67.35-14.68 67.76-14.51 68.26-14.02C68.91-13.28 69.98-13.20 70.72-13.86C71.45-14.43 71.54-15.58 70.88-16.32C70.06-17.30 69.08-17.88 67.93-18.04C66.94-18.12 65.88-17.96 64.89-17.38C62.84-16.32 60.96-14.10 59.56-11.15C58.17-8.20 57.68-5.17 58.25-2.87C58.91-0.08 61.12 1.48 64.24 1.48ZM85.90 2.95L86.31 2.95C91.97 2.71 95.33-5.58 95.17-11.32L95.17-11.73C96.64-10.66 98.28-9.59 100.25-9.10C103.29-8.45 106.32-9.18 109.60-11.48C110.42-11.97 110.58-13.12 110.09-13.94C109.52-14.76 108.37-14.92 107.55-14.35C102.30-10.74 99.43-12.96 96.07-15.50C94.27-16.89 92.38-18.37 90.08-18.53L89.59-18.53C88.61-18.53 87.87-17.71 87.87-16.73C87.87-15.74 88.61-15.01 89.59-15.01L89.76-15.01C90.33-14.92 90.66-14.68 90.99-14.27C91.40-13.61 91.64-12.55 91.64-11.23C91.72-8.94 91.07-6.15 89.92-4.02C88.77-1.89 87.46-0.66 86.15-0.66C84.84-0.57 84.02-1.07 83.52-2.21C82.13-5.58 84.26-11.15 87.05-13.78C87.79-14.43 87.87-15.50 87.21-16.24C86.56-16.97 85.41-17.06 84.67-16.40C82.62-14.51 80.98-11.81 80.16-8.77C79.34-5.90 79.34-2.95 80.24-0.82C81.23 1.56 83.28 2.95 85.90 2.95ZM116.42 36.65L116.59 36.65C118.72 36.41 120.69 33.95 123.31 27.88C125.44 23.12 127.90 16.32 130.85 7.13C135.69-7.95 141.68-28.95 150.29-61.01C150.53-61.91 150.04-62.81 149.14-63.06C148.24-63.30 147.34-62.81 147.09-61.91C138.73-30.67 132.82-10.00 128.07 4.92C125.20 13.94 122.82 20.66 120.77 25.50C118.39 31.08 117.08 32.72 116.50 33.13C116.09 32.55 115.11 30.67 114.21 24.85C113.47 19.60 112.90 12.63 112.73 4.67C112.32-13.37 113.63-32.96 116.34-48.95C116.50-49.86 115.93-50.76 115.03-50.84C114.13-51.00 113.22-50.43 113.14-49.53C110.35-33.62 109.04-14.19 109.37 3.77C109.53 11.73 110.03 18.86 110.85 24.35C111.26 27.14 111.67 29.44 112.16 31.24C112.73 33.29 113.47 34.77 114.21 35.59C114.95 36.41 115.77 36.65 116.42 36.65ZM154.65 1.48C158.91 1.48 163.26-0.16 167.52-3.53C171.71-6.81 174.49-10.50 175.48-11.97C176.05-12.79 175.81-13.94 174.99-14.43C174.17-15.01 173.10-14.76 172.53-13.94C171.62-12.63 169.16-9.27 165.39-6.31C161.70-3.53 158.09-2.05 154.65-2.05C153.83-2.05 152.85-2.21 152.35-3.12C154.16-4.02 156.21-5.33 157.93-6.72C159.82-8.28 162.19-10.66 162.60-13.04C162.85-14.43 162.44-15.74 161.37-16.73C159.57-18.37 157.19-18.53 154.90-17.06C152.93-15.83 151.04-13.53 149.81-10.74C148.50-7.79 148.09-4.84 148.66-2.71C149.40 0 151.62 1.48 154.65 1.48ZM152.27-7.05C152.44-7.79 152.68-8.53 153.01-9.27C153.99-11.40 155.39-13.20 156.78-14.02C157.27-14.35 157.68-14.51 158.01-14.51C158.50-14.51 158.83-14.27 159.00-14.10C159.08-13.94 159.16-13.94 159.08-13.69C158.83-12.05 155.63-9.02 152.27-7.05ZM201.65-14.43C200.91-14.92 199.77-14.76 199.19-13.94L187.47 3.20C188.53-4.51 189.35-12.46 189.60-19.52L189.60-19.93C189.60-20.75 188.94-21.48 188.04-21.48L187.55-21.48C186.81-21.40 186.15-20.75 186.07-20.01C184.68-15.50 182.46-11.40 180.00-8.28C177.79-5.41 175.41-3.69 173.53-3.61C172.95-3.61 172.95-3.69 172.95-4.02C172.71-5.17 173.36-7.71 175.33-10.41C177.30-13.20 180.00-15.33 182.71-16.07C183.61-16.32 184.19-17.30 183.94-18.29C183.61-19.19 182.63-19.76 181.73-19.52C176.97-18.12 173.85-14.51 172.46-12.46C170.16-9.27 169.02-5.82 169.43-3.44C169.75-1.31 171.31-0.08 173.44-0.08L173.69-0.08C176.64-0.25 179.84-2.38 182.79-6.07C183.69-7.22 184.60-8.45 185.42-9.76C184.84-3.20 183.94 3.69 182.79 10.17C178.28 17.06 174.18 23.45 170.90 29.11C167.29 35.26 164.75 40.18 163.19 44.03C161.39 48.71 160.98 51.91 161.96 54.04C162.46 55.10 163.60 56.42 165.98 56.74L166.39 56.74C168.20 56.74 169.92 55.51 171.80 53.14C173.44 51.09 175.17 48.05 176.81 44.28C180.25 36.65 183.37 26.40 185.33 16.15C185.66 14.68 185.91 13.12 186.24 11.56C191.24 3.94 196.73-4.02 202.14-11.89C202.72-12.71 202.47-13.86 201.65-14.43ZM173.61 42.80C172.05 46.33 170.49 49.12 169.02 50.92C167.62 52.81 166.64 53.22 166.39 53.14C165.49 53.05 165.33 52.73 165.24 52.56C165.00 51.99 164.59 50.27 166.56 45.35C168.03 41.66 170.41 36.90 173.94 30.91C176.07 27.39 178.45 23.53 181.07 19.43C179.10 28.04 176.48 36.41 173.61 42.80ZM211.67 3.85C214.46 3.85 218.07 1.72 222.58-2.79C226.35-6.48 229.63-10.66 230.53-11.89C231.11-12.63 230.94-13.78 230.20-14.35C229.38-15.01 228.32-14.84 227.74-14.02C226.84-12.87 223.73-8.86 220.12-5.33C216.76-2.05 213.97-0.08 212.16 0.25C212-0.57 211.84-3.03 213.39-9.84C214.46-14.51 215.77-18.86 215.77-18.94C216.02-19.84 215.53-20.83 214.54-21.16C213.64-21.40 212.66-20.91 212.33-19.93C210.93-15.42 208.80-11.15 206.26-7.95C203.96-5.17 201.59-3.44 199.70-3.28C199.21-3.28 199.21-3.36 199.13-3.77C198.96-4.92 199.62-7.38 201.50-10.09C203.55-12.96 206.26-15.01 208.88-15.74C209.87-16.07 210.36-17.06 210.11-17.96C209.87-18.94 208.88-19.43 207.90-19.19C203.23-17.79 200.11-14.19 198.63-12.14C196.34-9.02 195.19-5.49 195.60-3.12C196.01-0.90 197.65 0.33 199.95 0.25C202.82 0.08 206.01-1.97 208.88-5.66C208.80-4.67 208.64-3.85 208.64-3.12C208.31-0.16 208.56 1.56 209.38 2.71C209.95 3.44 210.77 3.85 211.67 3.85Z"></path></g><g id="" class="logo--name svgSloganText_1 sloganBox" transform="scale(1) translate(320,254.4)" fill="none"></g></g></g></g></svg>
